<?xml version="1.0" encoding="UTF-8"?>
<svg version="1.1" xmlns="http://www.w3.org/2000/svg" width="256" height="256">
<path d="M0 0 C1.25683594 0.32742187 2.51367188 0.65484375 3.80859375 0.9921875 C33.35759399 9.70739317 59.599751 30.40261211 75 57 C75.39268066 57.66612305 75.78536133 58.33224609 76.18994141 59.01855469 C88.23764871 79.69548728 93.21074946 100.79267391 93.375 124.625 C93.38901855 125.91108154 93.40303711 127.19716309 93.41748047 128.5222168 C93.29038829 154.07914977 84.10652373 179.48975929 69 200 C68.40960938 200.81339844 67.81921875 201.62679687 67.2109375 202.46484375 C55.20064987 218.23154049 40.70360643 230.13519854 23 239 C22.15308594 239.42925781 21.30617187 239.85851562 20.43359375 240.30078125 C12.57242323 244.08492146 4.39372671 246.70415843 -4 249 C-5.16402344 249.32355469 -6.32804688 249.64710938 -7.52734375 249.98046875 C-39.29790249 257.32805725 -74.97143468 250.94697365 -102.703125 233.95654297 C-110.44390904 229.0231247 -117.37622537 223.34237244 -124 217 C-124.80953125 216.26523438 -125.6190625 215.53046875 -126.453125 214.7734375 C-143.03318878 199.18400646 -153.97914997 177.72523385 -160 156 C-160.3403125 154.81148437 -160.680625 153.62296875 -161.03125 152.3984375 C-165.41537275 133.7659158 -164.9657086 110.44675781 -160 92 C-159.81195801 91.2972998 -159.62391602 90.59459961 -159.43017578 89.87060547 C-150.4059766 57.25569944 -128.88563463 29.13961765 -99.49609375 12.4140625 C-89.94916863 7.1195683 -80.5696915 2.84818531 -70 0 C-69.34257813 -0.19319824 -68.68515625 -0.38639648 -68.0078125 -0.58544922 C-46.37231072 -6.83627226 -21.57949129 -6.02383172 0 0 Z " fill="#EBA12A" transform="translate(163,4)"/>
<path d="M0 0 C0.6276123 0.27972656 1.25522461 0.55945312 1.90185547 0.84765625 C11.97811122 5.39266983 20.59893865 10.83376132 29 18 C29.51014648 18.42651855 30.02029297 18.85303711 30.54589844 19.29248047 C44.59434338 31.12720406 57.09741709 46.9161073 64 64 C64.4228125 65.03640625 64.845625 66.0728125 65.28125 67.140625 C70.5638209 80.61795332 73.22418012 92.55590225 73 107 C54.36680247 114.40862429 54.36680247 114.40862429 46.65234375 116.4921875 C44.97841706 116.86552249 44.97841706 116.86552249 44 118 C43.70386218 119.52626321 43.45970172 121.06268305 43.23828125 122.6015625 C40.02291178 143.6822621 34.22569164 160.46723558 19 176 C18.34644531 176.68964844 17.69289062 177.37929687 17.01953125 178.08984375 C-1.75312391 196.42676997 -29.46277278 200.5608725 -54.5078125 200.27734375 C-73.94652139 199.71548288 -91.87368468 190.14127553 -105.21484375 176.14453125 C-111.15227758 169.01181533 -116.75672658 161.26374968 -121 153 C-120.67 152.34 -120.34 151.68 -120 151 C-119.32517578 152.07314453 -119.32517578 152.07314453 -118.63671875 153.16796875 C-105.31518117 173.80433859 -88.31922014 190.08932717 -63.625 195.5 C-38.17067971 200.43486367 -13.37655087 194.22593052 8.62109375 181.02734375 C11.52044057 178.55647183 11.54651468 177.70865761 12 174 C12.03853323 171.45839037 12.02561986 168.95566039 11.94921875 166.41796875 C11.92091728 165.32020866 11.92091728 165.32020866 11.89204407 164.20027161 C11.85026055 162.64946606 11.80553347 161.09873739 11.75805664 159.5480957 C11.68887126 157.23337781 11.63381449 154.91863685 11.58007812 152.60351562 C12.2069633 136.29166809 12.2069633 136.29166809 8 122 C6.34636077 121.97097556 4.69137047 122.0135256 3.0390625 122.0859375 C2.00910156 122.12976563 0.97914063 122.17359375 -0.08203125 122.21875 C-1.16871094 122.2703125 -2.25539062 122.321875 -3.375 122.375 C-4.42300781 122.41882813 -5.47101563 122.46265625 -6.55078125 122.5078125 C-13.38940727 122.81212713 -20.18897356 123.31703318 -27 124 C-27 126.94354357 -25.44122341 127.97578837 -23.5 130.125 C-22.8503125 130.84945312 -22.200625 131.57390625 -21.53125 132.3203125 C-20.77328125 133.15175781 -20.77328125 133.15175781 -20 134 C-25.44679312 140.06928377 -33.08227239 142.78945588 -41.12890625 143.45703125 C-48.2416475 143.76624483 -55.32468657 143.79729409 -61 139 C-64.94904175 135.14296101 -68.90443576 131.18953867 -71 126 C-70.5625 123.9375 -70.5625 123.9375 -70 122 C-70.33 121.01 -70.66 120.02 -71 119 C-72.58409154 108.93400058 -68.79388331 99.27761485 -65.86425781 89.80029297 C-64.72823621 86.11945461 -63.62986742 82.4277895 -62.52978516 78.73608398 C-61.79104645 76.26244263 -61.04495505 73.79114201 -60.296875 71.3203125 C-59.16069876 67.55693694 -58.06929889 63.78289701 -57 60 C-61.455 60.99 -61.455 60.99 -66 62 C-66 61.34 -66 60.68 -66 60 C-77.9639996 64.93093259 -87.50126251 73.18394274 -93 85 C-94.13379326 87.86273382 -95.18088359 90.72681621 -96.140625 93.65234375 C-97 96 -97 96 -99 99 C-98.79389966 87.04618007 -92.53224059 76.61633693 -84.39453125 68.1875 C-78.40766893 62.71826199 -70.51056665 56 -62 56 C-63.32395544 53.35208912 -64.35278622 53.34040868 -67.12109375 52.4140625 C-67.96986084 52.12466797 -68.81862793 51.83527344 -69.69311523 51.53710938 C-70.59876221 51.23611328 -71.50440918 50.93511719 -72.4375 50.625 C-78.75160011 48.48927473 -84.97183499 46.33828957 -91.02734375 43.53125 C-93.69792525 42.81204389 -95.37249523 43.18071505 -98 44 C-113.83552692 54.23515765 -124.66996499 75.17490364 -128.6875 93.0625 C-129.75458062 98.36890635 -130.53527117 103.60914557 -131 109 C-151.84988624 109.38295709 -151.84988624 109.38295709 -160 107 C-160 108.98 -160 110.96 -160 113 C-160.33 113 -160.66 113 -161 113 C-162.101349 82.25400714 -154.24553365 53.27302654 -133.1015625 30.1875 C-124.84762985 21.53510164 -115.40101363 14.85592993 -105 9 C-103.95714844 8.40445312 -102.91429687 7.80890625 -101.83984375 7.1953125 C-71.33344464 -9.16688011 -32.13506225 -14.56890661 0 0 Z " fill="#F1D956" transform="translate(172,16)"/>
<path d="M0 0 C5.18321074 0.43572788 9.41650604 1.79262582 14.1875 3.8125 C19.97647206 6.23678624 25.7726808 8.28162279 31.8046875 10.04296875 C32.89136719 10.51669922 32.89136719 10.51669922 34 11 C34.495 12.485 34.495 12.485 35 14 C34.24976562 14.268125 33.49953125 14.53625 32.7265625 14.8125 C25.00403291 17.76923677 19.06351033 21.38281628 13 27 C12.15501953 27.78117187 12.15501953 27.78117187 11.29296875 28.578125 C6.787574 33.2856087 0 43.20893489 0 50 C0.40089844 49.10539062 0.80179687 48.21078125 1.21484375 47.2890625 C7.22169424 34.33145355 15.430353 24.06330395 28.609375 17.75 C31 17 31 17 34 18 C34.66 17.835 35.32 17.67 36 17.5 C38 17 38 17 41 18 C40.63648437 19.12792969 40.27296875 20.25585938 39.8984375 21.41796875 C37.05283554 30.30522291 34.31201535 39.21402922 31.75 48.1875 C31.50427246 49.04690186 31.25854492 49.90630371 31.00537109 50.79174805 C30.32560454 53.19154418 29.65883925 55.59438161 29 58 C28.79914795 58.72316406 28.5982959 59.44632813 28.39135742 60.19140625 C26.34948357 67.85634219 26.44795958 75.23979789 28 83 C28 83.99 28 84.98 28 86 C31.68016047 92.44365094 36.87477133 97.62492378 44 100 C54.51890515 100.86220534 63.48479411 100.12579377 73 95 C74.80214724 93.45174521 74.80214724 93.45174521 76 92 C75.50628906 91.44570312 75.01257813 90.89140625 74.50390625 90.3203125 C73.86324219 89.59585938 73.22257813 88.87140625 72.5625 88.125 C71.60537109 87.04605469 71.60537109 87.04605469 70.62890625 85.9453125 C69 84 69 84 68 82 C70.70331771 80.64834114 73.0564044 80.67687582 76.07421875 80.46484375 C77.29947266 80.37783203 78.52472656 80.29082031 79.78710938 80.20117188 C81.07423828 80.11416016 82.36136719 80.02714844 83.6875 79.9375 C85.58918945 79.80118164 85.58918945 79.80118164 87.52929688 79.66210938 C100.24477134 78.77714961 100.24477134 78.77714961 105 79 C111.44321396 85.44321396 109.68471862 105.62415947 110.01757812 114.54003906 C110.0899698 116.28204609 110.17986177 118.02340307 110.28613281 119.76367188 C111.16261606 134.22833413 111.16261606 134.22833413 108.43457031 138.38549805 C106.35012882 139.99431698 104.4295792 141.00160245 102 142 C100.9171875 142.64066406 99.834375 143.28132812 98.71875 143.94140625 C75.20453859 155.78412195 49.49258966 160.23514875 24 152 C14.738931 148.44656809 6.46655126 143.53134686 -1 137 C-1.64839844 136.49339844 -2.29679687 135.98679688 -2.96484375 135.46484375 C-10.35114795 129.51192135 -16.52026636 121.5712527 -21.109375 113.28125 C-22.65409184 110.60033647 -23.8396144 109.07494662 -26 107 C-28.9185727 101.80695341 -30.30418334 96.91444162 -31 91 C-31.46778026 88.78781752 -31.46778026 88.78781752 -33 87 C-36.22191512 86.13985954 -36.22191512 86.13985954 -40 85.875 C-45.39696966 85.30744229 -50.65155471 84.55664575 -55.94921875 83.3671875 C-58.30899858 82.88250342 -58.30899858 82.88250342 -62 83 C-62 86.63 -62 90.26 -62 94 C-62.33 94 -62.66 94 -63 94 C-65.38297872 72.46808511 -65.38297872 72.46808511 -65 62 C-64.34 62.99 -63.68 63.98 -63 65 C-59.99994597 65.60531836 -59.99994597 65.60531836 -56.4609375 65.73046875 C-54.50800781 65.85131836 -54.50800781 65.85131836 -52.515625 65.97460938 C-51.13543249 66.04588 -49.75522388 66.11683952 -48.375 66.1875 C-46.98690202 66.26887684 -45.598879 66.35154334 -44.2109375 66.43554688 C-40.8078182 66.63642544 -37.40448167 66.82399329 -34 67 C-34.0309375 65.68128906 -34.061875 64.36257812 -34.09375 63.00390625 C-34.0866696 58.47333535 -33.54621362 54.33728659 -32.5 49.9375 C-32.24259033 48.85275391 -32.24259033 48.85275391 -31.97998047 47.74609375 C-27.16483615 29.11621549 -15.54219602 13.23672592 -1 1 C-0.67 0.67 -0.34 0.34 0 0 Z " fill="#EFD62D" transform="translate(75,58)"/>
<path d="M0 0 C0.6276123 0.27972656 1.25522461 0.55945312 1.90185547 0.84765625 C11.97811122 5.39266983 20.59893865 10.83376132 29 18 C29.51014648 18.42651855 30.02029297 18.85303711 30.54589844 19.29248047 C45.16743506 31.60998929 63.00632217 51.46195725 65 71 C47.14229487 80.28079274 47.14229487 80.28079274 40 82 C37 81 37 81 35.30859375 77.859375 C34.68032326 76.49167456 34.05694163 75.12172168 33.4375 73.75 C23.94742571 53.84692665 7.70034508 39.03770233 -12.890625 30.99609375 C-18.49307392 29.20133939 -24.2179901 28.0520521 -30 27 C-30.09023437 27.61359375 -30.18046875 28.2271875 -30.2734375 28.859375 C-31 31 -31 31 -32.6015625 32.265625 C-37.35381248 34.5775304 -40.71685468 35.44026211 -46 35 C-45.773125 35.680625 -45.54625 36.36125 -45.3125 37.0625 C-44.87709824 41.15527655 -46.20163215 43.33132959 -48 47 C-44.7 47.33 -41.4 47.66 -38 48 C-38.99 48.66 -39.98 49.32 -41 50 C-39.80375 50.391875 -38.6075 50.78375 -37.375 51.1875 C-35.58322408 51.79134259 -33.79157301 52.39555566 -32 53 C-30.89011719 53.36351562 -29.78023437 53.72703125 -28.63671875 54.1015625 C-15.46198167 58.56513462 -3.9135147 64.66363887 3.625 76.875 C5 80 5 80 4 83 C3.443125 82.29875 2.88625 81.5975 2.3125 80.875 C1.549375 79.92625 0.78625 78.9775 0 78 C-0.39703125 77.47277344 -0.7940625 76.94554688 -1.203125 76.40234375 C-3.82500317 73.02543104 -5.86715603 71.18081256 -10 70 C-10 69.01 -10 68.02 -10 67 C-18.60590807 59.86014264 -29.9603343 56.26402229 -41 57 C-39.61941406 57.45439453 -39.61941406 57.45439453 -38.2109375 57.91796875 C-34.13564786 59.263931 -30.06668688 60.62828527 -26 62 C-25.31744141 62.22945313 -24.63488281 62.45890625 -23.93164062 62.6953125 C-21.9930694 63.35092259 -20.05859015 64.01736117 -18.125 64.6875 C-16.97257813 65.08324219 -15.82015625 65.47898437 -14.6328125 65.88671875 C-12 67 -12 67 -11 69 C-18.74344337 68.22786177 -25.97779011 65.68254391 -33.37109375 63.3515625 C-34.40621094 63.03703125 -35.44132812 62.7225 -36.5078125 62.3984375 C-37.44254395 62.10630371 -38.37727539 61.81416992 -39.34033203 61.51318359 C-42.23624163 60.95441712 -44.17579578 61.23080877 -47 62 C-46.67 63.98 -46.34 65.96 -46 68 C-49.875 64.25 -49.875 64.25 -51 62 C-51.66 62 -52.32 62 -53 62 C-58.04414576 75.65071945 -63.03681285 89.31964434 -68 103 C-69.29657218 99.11028347 -68.43693591 97.39481329 -67.234375 93.49609375 C-66.9432785 92.5392141 -66.9432785 92.5392141 -66.64630127 91.56300354 C-66.02234443 89.51856812 -65.38643231 87.47808218 -64.75 85.4375 C-64.33643491 84.09074163 -63.92366603 82.74373848 -63.51171875 81.39648438 C-62.71448238 78.79279266 -61.91294372 76.19049536 -61.10742188 73.58935547 C-59.71219256 69.06716381 -58.35222239 64.53521339 -57 60 C-61.455 60.99 -61.455 60.99 -66 62 C-66 61.34 -66 60.68 -66 60 C-77.9639996 64.93093259 -87.50126251 73.18394274 -93 85 C-94.13379326 87.86273382 -95.18088359 90.72681621 -96.140625 93.65234375 C-97 96 -97 96 -99 99 C-98.79389966 87.04618007 -92.53224059 76.61633693 -84.39453125 68.1875 C-78.40766893 62.71826199 -70.51056665 56 -62 56 C-63.32395544 53.35208912 -64.35278622 53.34040868 -67.12109375 52.4140625 C-67.96986084 52.12466797 -68.81862793 51.83527344 -69.69311523 51.53710938 C-70.59876221 51.23611328 -71.50440918 50.93511719 -72.4375 50.625 C-78.75160011 48.48927473 -84.97183499 46.33828957 -91.02734375 43.53125 C-93.69792525 42.81204389 -95.37249523 43.18071505 -98 44 C-113.83552692 54.23515765 -124.66996499 75.17490364 -128.6875 93.0625 C-129.75458062 98.36890635 -130.53527117 103.60914557 -131 109 C-151.84988624 109.38295709 -151.84988624 109.38295709 -160 107 C-160 108.98 -160 110.96 -160 113 C-160.33 113 -160.66 113 -161 113 C-162.101349 82.25400714 -154.24553365 53.27302654 -133.1015625 30.1875 C-124.84762985 21.53510164 -115.40101363 14.85592993 -105 9 C-103.95714844 8.40445312 -102.91429687 7.80890625 -101.83984375 7.1953125 C-71.33344464 -9.16688011 -32.13506225 -14.56890661 0 0 Z " fill="#FAEB74" transform="translate(172,16)"/>
<path d="M0 0 C1.25683594 0.32742187 2.51367188 0.65484375 3.80859375 0.9921875 C33.35759399 9.70739317 59.599751 30.40261211 75 57 C75.39268066 57.66612305 75.78536133 58.33224609 76.18994141 59.01855469 C88.23764871 79.69548728 93.21074946 100.79267391 93.375 124.625 C93.38901855 125.91108154 93.40303711 127.19716309 93.41748047 128.5222168 C93.29038829 154.07914977 84.10652373 179.48975929 69 200 C68.40960938 200.81339844 67.81921875 201.62679687 67.2109375 202.46484375 C55.20064987 218.23154049 40.70360643 230.13519854 23 239 C22.15308594 239.42925781 21.30617187 239.85851562 20.43359375 240.30078125 C12.57242323 244.08492146 4.39372671 246.70415843 -4 249 C-5.16402344 249.32355469 -6.32804688 249.64710938 -7.52734375 249.98046875 C-39.29790249 257.32805725 -74.97143468 250.94697365 -102.703125 233.95654297 C-110.44390904 229.0231247 -117.37622537 223.34237244 -124 217 C-124.80953125 216.26523438 -125.6190625 215.53046875 -126.453125 214.7734375 C-143.03318878 199.18400646 -153.97914997 177.72523385 -160 156 C-160.3403125 154.81148437 -160.680625 153.62296875 -161.03125 152.3984375 C-165.41537275 133.7659158 -164.9657086 110.44675781 -160 92 C-159.81195801 91.2972998 -159.62391602 90.59459961 -159.43017578 89.87060547 C-150.4059766 57.25569944 -128.88563463 29.13961765 -99.49609375 12.4140625 C-89.94916863 7.1195683 -80.5696915 2.84818531 -70 0 C-69.34257813 -0.19319824 -68.68515625 -0.38639648 -68.0078125 -0.58544922 C-46.37231072 -6.83627226 -21.57949129 -6.02383172 0 0 Z M-127.62109375 45.95703125 C-134.2031662 53.9034827 -138.81638176 62.60805563 -143 72 C-143.72509766 73.60294922 -143.72509766 73.60294922 -144.46484375 75.23828125 C-149.78668296 87.96863827 -152.54555783 102.22842655 -153 116 C-153.03996094 116.88816406 -153.07992187 117.77632813 -153.12109375 118.69140625 C-153.27622609 125.25259168 -152.74846979 131.7253439 -152.125 138.25 C-152.04660889 139.08982422 -151.96821777 139.92964844 -151.88745117 140.79492188 C-149.66146527 162.39317434 -139.4856563 183.97224067 -125 200 C-124.29230469 200.83789062 -123.58460937 201.67578125 -122.85546875 202.5390625 C-103.82163229 224.69376224 -75.59159285 238.91573248 -46.5 241.41015625 C-12.98300821 243.86655431 17.8327033 234.24570432 43.38134766 212.21850586 C65.45162469 192.60988752 81.15373695 163.81037704 83.20507812 134.02197266 C83.30255314 130.92813571 83.32902041 127.84530173 83.3125 124.75 C83.30758545 123.65171875 83.3026709 122.5534375 83.29760742 121.421875 C83.17533416 112.91416434 82.27817548 105.2267448 80 97 C79.71866211 95.9486084 79.71866211 95.9486084 79.43164062 94.87597656 C74.30564809 75.82354152 66.0662347 59.86454924 53 45 C52.28070313 44.14792969 51.56140625 43.29585937 50.8203125 42.41796875 C45.43406567 36.17873977 39.54658981 30.9941128 33 26 C32.22140625 25.39414062 31.4428125 24.78828125 30.640625 24.1640625 C-17.43602497 -11.49009738 -89.02114696 2.40984836 -127.62109375 45.95703125 Z " fill="#E18C2A" transform="translate(163,4)"/>
<path d="M0 0 C0.46688425 1.28860053 0.92282871 2.58116332 1.375 3.875 C1.63023437 4.59429687 1.88546875 5.31359375 2.1484375 6.0546875 C4.47794296 14.11178437 5.36199161 21.81069157 5.3125 30.1875 C5.30686035 31.19490234 5.3012207 32.20230469 5.29541016 33.24023438 C4.92999541 55.85976925 -3.13928253 75.81940251 -19 92 C-19.65355469 92.68964844 -20.30710938 93.37929687 -20.98046875 94.08984375 C-39.75312391 112.42676997 -67.46277278 116.5608725 -92.5078125 116.27734375 C-111.94652139 115.71548288 -129.87368468 106.14127553 -143.21484375 92.14453125 C-149.15227758 85.01181533 -154.75672658 77.26374968 -159 69 C-158.505 68.01 -158.505 68.01 -158 67 C-157.55011719 67.71542969 -157.10023438 68.43085938 -156.63671875 69.16796875 C-143.31518117 89.80433859 -126.31922014 106.08932717 -101.625 111.5 C-76.17067971 116.43486367 -51.37655087 110.22593052 -29.37890625 97.02734375 C-26.47955943 94.55647183 -26.45348532 93.70865761 -26 90 C-25.96146677 87.45839037 -25.97438014 84.95566039 -26.05078125 82.41796875 C-26.07908272 81.32020866 -26.07908272 81.32020866 -26.10795593 80.20027161 C-26.14973945 78.64946606 -26.19446653 77.09873739 -26.24194336 75.5480957 C-26.31112874 73.23337781 -26.36618551 70.91863685 -26.41992188 68.60351562 C-25.7930367 52.29166809 -25.7930367 52.29166809 -30 38 C-31.65363923 37.97097556 -33.30862953 38.0135256 -34.9609375 38.0859375 C-36.50587891 38.15167969 -36.50587891 38.15167969 -38.08203125 38.21875 C-39.16871094 38.2703125 -40.25539063 38.321875 -41.375 38.375 C-42.42300781 38.41882813 -43.47101563 38.46265625 -44.55078125 38.5078125 C-51.38940727 38.81212713 -58.18897356 39.31703318 -65 40 C-65 42.94354357 -63.44122341 43.97578837 -61.5 46.125 C-60.8503125 46.84945312 -60.200625 47.57390625 -59.53125 48.3203125 C-59.0259375 48.87460938 -58.520625 49.42890625 -58 50 C-63.44679312 56.06928377 -71.08227239 58.78945588 -79.12890625 59.45703125 C-86.2416475 59.76624483 -93.32468657 59.79729409 -99 55 C-102.94904175 51.14296101 -106.90443576 47.18953867 -109 42 C-108.5625 39.9375 -108.5625 39.9375 -108 38 C-108.33 37.01 -108.66 36.02 -109 35 C-109.0685495 33.10529184 -109.08480372 31.2083166 -109.0625 29.3125 C-109.05347656 28.31863281 -109.04445312 27.32476562 -109.03515625 26.30078125 C-109.02355469 25.54152344 -109.01195312 24.78226563 -109 24 C-108.24307861 23.91024902 -107.48615723 23.82049805 -106.70629883 23.72802734 C-82.07370985 20.75560734 -57.74760451 16.69327041 -33.92724609 9.5703125 C-31.98402984 8.9952741 -30.03510542 8.44678494 -28.08203125 7.90625 C-20.96328331 5.92590284 -14.07913898 3.80241025 -7.3125 0.8125 C-4.74398721 -0.08995044 -2.70278046 -0.1544446 0 0 Z " fill="#F4E330" transform="translate(210,100)"/>
<path d="M0 0 C1.55275546 3.10551092 0.11513003 5.20163732 -0.9375 8.4375 C-3.46777844 16.94447061 -3.7373688 24.313156 -2 33 C-2 33.99 -2 34.98 -2 36 C1.68016047 42.44365094 6.87477133 47.62492378 14 50 C24.51890515 50.86220534 33.48479411 50.12579377 43 45 C44.80214724 43.45174521 44.80214724 43.45174521 46 42 C45.25943359 41.16855469 45.25943359 41.16855469 44.50390625 40.3203125 C43.86324219 39.59585938 43.22257812 38.87140625 42.5625 38.125 C41.92441406 37.40570313 41.28632813 36.68640625 40.62890625 35.9453125 C39 34 39 34 38 32 C40.70331771 30.64834114 43.0564044 30.67687582 46.07421875 30.46484375 C47.91209961 30.33432617 47.91209961 30.33432617 49.78710938 30.20117188 C51.07423828 30.11416016 52.36136719 30.02714844 53.6875 29.9375 C54.95529297 29.84662109 56.22308594 29.75574219 57.52929688 29.66210938 C69.31987397 28.84151976 69.31987397 28.84151976 75 29 C76 30 76 30 76.11352539 33.87719727 C76.11336621 35.60694167 76.10766849 37.33669081 76.09765625 39.06640625 C76.0962413 39.97502914 76.09482635 40.88365204 76.09336853 41.81980896 C76.08775193 44.73407221 76.07519665 47.64825981 76.0625 50.5625 C76.05748714 52.53320202 76.05292386 54.50390524 76.04882812 56.47460938 C76.03777711 61.31643559 76.02050138 66.15820495 76 71 C75.54109375 70.59007812 75.0821875 70.18015625 74.609375 69.7578125 C73.99578125 69.21898437 73.3821875 68.68015625 72.75 68.125 C71.84507812 67.32449219 71.84507812 67.32449219 70.921875 66.5078125 C69.02581254 65.0202513 67.18709995 63.99677564 65 63 C64.46632813 63.44730469 63.93265625 63.89460938 63.3828125 64.35546875 C57.90737358 68.7983422 52.48751461 72.23266955 46 75 C45.278125 75.32097656 44.55625 75.64195312 43.8125 75.97265625 C30.83814646 80.81551391 14.07958318 79.06163603 1.69921875 73.5234375 C-13.32505013 65.93332243 -24.43109767 54.05278285 -30 38 C-31.67706305 31.7177759 -33.23255075 25.53590003 -33 19 C-30.28246834 18.27153837 -27.64268978 17.77790035 -24.84765625 17.46484375 C-24.07099609 17.37783203 -23.29433594 17.29082031 -22.49414062 17.20117188 C-21.69169922 17.11416016 -20.88925781 17.02714844 -20.0625 16.9375 C-19.26392578 16.84662109 -18.46535156 16.75574219 -17.64257812 16.66210938 C-13.7424358 16.23235053 -9.93095888 15.88088003 -6 16 C-5.9071875 14.2675 -5.9071875 14.2675 -5.8125 12.5 C-5.22381018 7.50505606 -2.89336907 4.01441612 0 0 Z " fill="#F3AD0A" transform="translate(105,108)"/>
<path d="M0 0 C5.18321074 0.43572788 9.41650604 1.79262582 14.1875 3.8125 C19.97647206 6.23678624 25.7726808 8.28162279 31.8046875 10.04296875 C32.89136719 10.51669922 32.89136719 10.51669922 34 11 C34.495 12.485 34.495 12.485 35 14 C34.24976562 14.268125 33.49953125 14.53625 32.7265625 14.8125 C25.00403291 17.76923677 19.06351033 21.38281628 13 27 C12.15501953 27.78117187 12.15501953 27.78117187 11.29296875 28.578125 C5.05742759 35.09336062 -0.64790453 45.4944053 -0.85668945 54.61865234 C-1.02377849 57.39511996 -1.49540925 60.0369683 -2.01171875 62.76953125 C-2.19565186 63.75155518 -2.37958496 64.7335791 -2.5690918 65.74536133 C-2.7112915 66.48939209 -2.85349121 67.23342285 -3 68 C-3.87325928 68.02505615 -4.74651855 68.0501123 -5.64624023 68.07592773 C-8.87602552 68.17087709 -12.10564154 68.27012029 -15.33520508 68.37231445 C-16.73489199 68.41571434 -18.13463359 68.45738564 -19.53442383 68.49731445 C-21.54261495 68.55489445 -23.55061149 68.61914 -25.55859375 68.68359375 C-26.76829834 68.72025146 -27.97800293 68.75690918 -29.22436523 68.79467773 C-31.90705456 68.68938266 -31.90705456 68.68938266 -33 70 C-33.13488199 72.96740378 -33.0908609 75.59617379 -32.4375 78.5 C-31.9041245 81.54785998 -32.43929155 83.97632775 -33 87 C-40.71389608 86.03319169 -48.3576852 85.0716769 -55.94921875 83.3671875 C-58.30899858 82.88250342 -58.30899858 82.88250342 -62 83 C-62 86.63 -62 90.26 -62 94 C-62.33 94 -62.66 94 -63 94 C-65.38297872 72.46808511 -65.38297872 72.46808511 -65 62 C-64.34 62.99 -63.68 63.98 -63 65 C-59.99994597 65.60531836 -59.99994597 65.60531836 -56.4609375 65.73046875 C-54.50800781 65.85131836 -54.50800781 65.85131836 -52.515625 65.97460938 C-51.13543249 66.04588 -49.75522388 66.11683952 -48.375 66.1875 C-46.98690202 66.26887684 -45.598879 66.35154334 -44.2109375 66.43554688 C-40.8078182 66.63642544 -37.40448167 66.82399329 -34 67 C-34.0309375 65.68128906 -34.061875 64.36257812 -34.09375 63.00390625 C-34.0866696 58.47333535 -33.54621362 54.33728659 -32.5 49.9375 C-32.24259033 48.85275391 -32.24259033 48.85275391 -31.97998047 47.74609375 C-27.16483615 29.11621549 -15.54219602 13.23672592 -1 1 C-0.67 0.67 -0.34 0.34 0 0 Z " fill="#F0D758" transform="translate(75,58)"/>
<path d="M0 0 C0.33 0 0.66 0 1 0 C2.66349346 11.26315464 3.42826345 22.38338874 3.68798828 33.75976562 C3.75109357 36.42111925 3.83400067 39.08141872 3.91796875 41.7421875 C3.9621112 43.44007406 4.00512441 45.13799044 4.046875 46.8359375 C4.08575836 48.02478043 4.08575836 48.02478043 4.12542725 49.23764038 C4.16156903 51.15854191 4.09019378 53.08087676 4 55 C3.01 55.99 3.01 55.99 2 57 C0.125 56.9375 0.125 56.9375 -2 56 C-4.25 53.4375 -4.25 53.4375 -6 51 C-9.42055356 51.62526248 -10.18130041 52.16587059 -12.9375 54.6875 C-24.85248931 65.32130766 -40.53726215 66.92998333 -55.76025391 66.1953125 C-67.87007514 65.13930018 -80.84465554 57.88350022 -89 49 C-96.60608731 39.87009041 -100.72349565 30.3354501 -104 19 C-104.21027832 18.29053223 -104.42055664 17.58106445 -104.63720703 16.85009766 C-105.66249066 13.15172261 -106.13637544 10.65895695 -105 7 C-104.59910156 7.88300781 -104.19820313 8.76601562 -103.78515625 9.67578125 C-96.42118196 25.41983045 -86.86854024 35.67319455 -70.93359375 42.95703125 C-56.9692523 47.92171723 -40.61023557 48.02633046 -27 42 C-21.09743157 38.9993907 -15.92702421 35.40839008 -11 31 C-6.37866085 32.77743813 -4.93994379 35.06005621 -1 39 C-0.67 26.13 -0.34 13.26 0 0 Z " fill="#DEBF25" transform="translate(181,139)"/>
<path d="M0 0 C12.01440399 -0.85141446 23.47132565 2.4074308 33 10 C33.70455703 11.3137053 34.37706901 12.64568128 35 14 C36.66279327 15.0064275 38.32983484 16.00585407 40 17 C42.87635805 20.12290303 44.6245276 22.98820549 46 27 C41.36094482 30.03322839 36.64229996 32.82947245 31.75 35.4375 C30.75484375 35.97246094 29.7596875 36.50742188 28.734375 37.05859375 C26 38 26 38 23.640625 37.16015625 C23.09921875 36.77730469 22.5578125 36.39445312 22 36 C22 35.34 22 34.68 22 34 C21.43152344 33.72285156 20.86304688 33.44570312 20.27734375 33.16015625 C17.21889447 31.60207831 14.27716813 29.85635767 11.31640625 28.12109375 C5.26247429 25.19111319 -2.33531172 24.89377793 -8.73046875 26.82421875 C-12.58961229 28.35761552 -16.29748499 30.1233828 -20 32 C-17.14674729 23.28172782 -14.06687455 14.64481468 -11 6 C-9.68 6 -8.36 6 -7 6 C-5.25 8 -5.25 8 -4 10 C-4.20625 9.38125 -4.4125 8.7625 -4.625 8.125 C-4.74875 7.42375 -4.8725 6.7225 -5 6 C-4.34 5.34 -3.68 4.68 -3 4 C3.63141405 4.35331304 9.93300253 6.64538238 16.25 8.5625 C18.39992481 9.21333624 20.55092229 9.86064269 22.703125 10.50390625 C23.64833008 10.79080322 24.59353516 11.0777002 25.56738281 11.37329102 C28.06551498 12.12474059 28.06551498 12.12474059 31 12 C30.45174561 11.80889648 29.90349121 11.61779297 29.33862305 11.42089844 C9.20834947 4.40033088 9.20834947 4.40033088 0 1 C0 0.67 0 0.34 0 0 Z " fill="#FED95C" transform="translate(129,72)"/>
<path d="M0 0 C1.66343802 3.32687604 -0.14817979 6.60725572 -1.1875 10 C-1.53107544 11.14553345 -1.53107544 11.14553345 -1.8815918 12.31420898 C-3.61912703 18.0050133 -5.60309607 23.55005644 -8 29 C-0.39182154 26.81386858 -0.39182154 26.81386858 7 24 C4.2203437 27.088507 2.02497664 28.87675071 -2 30 C-4.3320802 30.07646165 -6.66845878 30.09143299 -9 30 C-8.773125 30.680625 -8.54625 31.36125 -8.3125 32.0625 C-7.87709824 36.15527655 -9.20163215 38.33132959 -11 42 C-7.7 42.33 -4.4 42.66 -1 43 C-1.99 43.66 -2.98 44.32 -4 45 C-2.80375 45.391875 -1.6075 45.78375 -0.375 46.1875 C1.41677592 46.79134259 3.20842699 47.39555566 5 48 C6.10988281 48.36351562 7.21976562 48.72703125 8.36328125 49.1015625 C21.53801833 53.56513462 33.0864853 59.66363887 40.625 71.875 C42 75 42 75 41 78 C40.443125 77.29875 39.88625 76.5975 39.3125 75.875 C38.549375 74.92625 37.78625 73.9775 37 73 C36.60296875 72.47277344 36.2059375 71.94554688 35.796875 71.40234375 C33.17499683 68.02543104 31.13284397 66.18081256 27 65 C27 64.01 27 63.02 27 62 C18.39409193 54.86014264 7.0396657 51.26402229 -4 52 C-3.07960937 52.30292969 -2.15921875 52.60585937 -1.2109375 52.91796875 C2.86435214 54.263931 6.93331312 55.62828527 11 57 C11.68255859 57.22945312 12.36511719 57.45890625 13.06835938 57.6953125 C15.0069306 58.35092259 16.94140985 59.01736117 18.875 59.6875 C20.02742188 60.08324219 21.17984375 60.47898438 22.3671875 60.88671875 C25 62 25 62 26 64 C18.25655663 63.22786177 11.02220989 60.68254391 3.62890625 58.3515625 C2.59378906 58.03703125 1.55867188 57.7225 0.4921875 57.3984375 C-0.44254395 57.10630371 -1.37727539 56.81416992 -2.34033203 56.51318359 C-5.23624163 55.95441712 -7.17579578 56.23080877 -10 57 C-9.505 59.97 -9.505 59.97 -9 63 C-12.875 59.25 -12.875 59.25 -14 57 C-14.66 57 -15.32 57 -16 57 C-21.04414576 70.65071945 -26.03681285 84.31964434 -31 98 C-32.29657218 94.11028347 -31.43693591 92.39481329 -30.234375 88.49609375 C-30.04031067 87.85817398 -29.84624634 87.22025421 -29.64630127 86.56300354 C-29.02234443 84.51856812 -28.38643231 82.47808218 -27.75 80.4375 C-27.33643491 79.09074163 -26.92366603 77.74373848 -26.51171875 76.39648438 C-25.71448238 73.79279266 -24.91294372 71.19049536 -24.10742188 68.58935547 C-22.71219256 64.06716381 -21.35222239 59.53521339 -20 55 C-22.97 55.66 -25.94 56.32 -29 57 C-29 56.34 -29 55.68 -29 55 C-40.9639996 59.93093259 -50.50126251 68.18394274 -56 80 C-57.13379326 82.86273382 -58.18088359 85.72681621 -59.140625 88.65234375 C-60 91 -60 91 -62 94 C-61.79389966 82.04618007 -55.53224059 71.61633693 -47.39453125 63.1875 C-41.40766893 57.71826199 -33.51056665 51 -25 51 C-25.79719431 48.88200986 -25.79719431 48.88200986 -27.66381836 48.24145508 C-28.38190674 48.00322021 -29.09999512 47.76498535 -29.83984375 47.51953125 C-30.64776367 47.24568604 -31.45568359 46.97184082 -32.28808594 46.68969727 C-33.5995459 46.25548462 -33.5995459 46.25548462 -34.9375 45.8125 C-44.74048295 42.4835037 -54.3802088 38.82235665 -64 35 C-60.01995615 33.67331872 -57.30216351 34.85974127 -53.4453125 36.0546875 C-52.70675018 36.27569122 -51.96818787 36.49669495 -51.20724487 36.72439575 C-48.84395798 37.43313546 -46.48443953 38.15356616 -44.125 38.875 C-41.77209399 39.58708267 -39.41847323 40.29670368 -37.06417847 41.00418091 C-35.59961729 41.44508101 -34.13596534 41.88901596 -32.67337036 42.33639526 C-29.1373081 43.40863567 -25.64022634 44.35750314 -22 45 C-21.67 44.01 -21.34 43.02 -21 42 C-21.99 41.505 -21.99 41.505 -23 41 C-23.309375 39.88625 -23.61875 38.7725 -23.9375 37.625 C-24.91204934 34.30006694 -25.3498113 33.04787309 -28 31 C-26.63792042 26.91376127 -24.73386836 26.0105445 -21 24 C-16.86862054 24.10328449 -13.60034484 26.07423416 -10 28 C-9.85304687 27.3915625 -9.70609375 26.783125 -9.5546875 26.15625 C-8.00172828 20.08721396 -6.0731031 14.23485643 -3.875 8.375 C-3.60929199 7.66408203 -3.34358398 6.95316406 -3.06982422 6.22070312 C-1.13281863 1.13281863 -1.13281863 1.13281863 0 0 Z " fill="#FEFAE9" transform="translate(135,21)"/>
<path d="M0 0 C0.66 -0.165 1.32 -0.33 2 -0.5 C4 -1 4 -1 7 0 C6.61328125 1.22074219 6.2265625 2.44148438 5.828125 3.69921875 C5.57796631 4.49030029 5.32780762 5.28138184 5.07006836 6.09643555 C4.52013163 7.83399987 3.96884624 9.57113787 3.41625977 11.30786133 C2.19667763 15.15220408 0.98450226 18.99388436 -0.11328125 22.875 C-1.75452696 28.60247475 -3.49942221 33.24512774 -6.89453125 38.14453125 C-8.74959026 41.2581462 -9.3057015 44.46538943 -10 48 C-14.91502758 49.29235715 -19.77290102 49.11135517 -24.8125 49.0625 C-26.13797852 49.05573242 -26.13797852 49.05573242 -27.49023438 49.04882812 C-29.66018559 49.03709866 -31.83010172 49.01916495 -34 49 C-33.45809419 35.23559238 -29.30207041 21.7450457 -19.0625 12 C-18.381875 11.34 -17.70125 10.68 -17 10 C-17 9.01 -17 8.02 -17 7 C-15.20703125 5.46484375 -15.20703125 5.46484375 -12.8125 3.9375 C-12.03519531 3.43089844 -11.25789063 2.92429687 -10.45703125 2.40234375 C-3.94431419 -1.3147714 -3.94431419 -1.3147714 0 0 Z " fill="#FEE861" transform="translate(109,76)"/>
<path d="M0 0 C6.65320837 12.03766538 8.21244373 25.5275271 8 39 C-10.58641634 46.39002393 -10.58641634 46.39002393 -18.25 48.4921875 C-20.08627777 48.96804092 -20.08627777 48.96804092 -22 50 C-22.07347656 48.54980469 -22.07347656 48.54980469 -22.1484375 47.0703125 C-22.57962039 39.56178279 -23.24797042 32.33018257 -25 25 C-25.1546875 24.23558594 -25.309375 23.47117187 -25.46875 22.68359375 C-26.40531943 18.02066877 -26.40531943 18.02066877 -30 15 C-29.41734375 14.76925781 -28.8346875 14.53851563 -28.234375 14.30078125 C-16.13218847 9.63223909 -16.13218847 9.63223909 -4.375 4.1875 C-2 3 -2 3 0 3 C0 2.01 0 1.02 0 0 Z " fill="#F2CC45" transform="translate(237,84)"/>
<path d="M0 0 C0.6276123 0.27972656 1.25522461 0.55945312 1.90185547 0.84765625 C11.97811122 5.39266983 20.59893865 10.83376132 29 18 C29.51014648 18.42651855 30.02029297 18.85303711 30.54589844 19.29248047 C38.8901539 26.32186752 45.50875574 34.25964538 52 43 C52.89525391 44.19302734 52.89525391 44.19302734 53.80859375 45.41015625 C54.20175781 45.93480469 54.59492188 46.45945313 55 47 C54.67 47.66 54.34 48.32 54 49 C53.40832031 48.26394531 52.81664062 47.52789062 52.20703125 46.76953125 C51.41683594 45.79371094 50.62664062 44.81789062 49.8125 43.8125 C49.03519531 42.84957031 48.25789062 41.88664062 47.45703125 40.89453125 C45.06790758 38.00032586 45.06790758 38.00032586 42.51171875 35.51171875 C40 33 40 33 37.59375 30.0234375 C34.79958032 26.76637827 31.886247 24.23089877 28.5 21.625 C27.88616455 21.15094727 27.2723291 20.67689453 26.63989258 20.18847656 C1.56006964 1.11377235 -26.41915263 -6.46575261 -57.75 -2.3125 C-59.84037194 -1.90997154 -61.92336949 -1.46828386 -64 -1 C-65.08063721 -0.77401123 -65.08063721 -0.77401123 -66.18310547 -0.54345703 C-91.27872924 4.75671427 -112.9326341 15.70296419 -131 34 C-131.68578125 34.68707031 -132.3715625 35.37414063 -133.078125 36.08203125 C-152.54883068 56.91217809 -158.13891487 85.58371608 -160 113 C-160.33 113 -160.66 113 -161 113 C-162.101349 82.25400714 -154.24553365 53.27302654 -133.1015625 30.1875 C-124.84762985 21.53510164 -115.40101363 14.85592993 -105 9 C-103.95714844 8.40445312 -102.91429687 7.80890625 -101.83984375 7.1953125 C-71.33344464 -9.16688011 -32.13506225 -14.56890661 0 0 Z " fill="#FEF9E6" transform="translate(172,16)"/>
<path d="M0 0 C0.99 1.485 0.99 1.485 2 3 C3.96737869 3.51207426 3.96737869 3.51207426 6.26611328 3.52416992 C7.14687531 3.56398483 8.02763733 3.60379974 8.93508911 3.64482117 C10.36327469 3.68721672 10.36327469 3.68721672 11.8203125 3.73046875 C13.28100662 3.79068962 13.28100662 3.79068962 14.77120972 3.85212708 C17.88878293 3.97752047 21.00667227 4.08272457 24.125 4.1875 C26.23572862 4.26885605 28.34640721 4.35152157 30.45703125 4.43554688 C35.63753548 4.63890916 40.81844131 4.82569082 46 5 C46 5.33 46 5.66 46 6 C45.07316406 6.06058594 44.14632812 6.12117188 43.19140625 6.18359375 C41.99386719 6.26738281 40.79632813 6.35117188 39.5625 6.4375 C38.36753906 6.51871094 37.17257813 6.59992188 35.94140625 6.68359375 C33.11429756 6.67656114 33.11429756 6.67656114 32 8 C31.86511801 10.96740378 31.9091391 13.59617379 32.5625 16.5 C33.0958755 19.54785998 32.56070845 21.97632775 32 25 C24.28610392 24.03319169 16.6423148 23.0716769 9.05078125 21.3671875 C6.69100142 20.88250342 6.69100142 20.88250342 3 21 C3 24.63 3 28.26 3 32 C2.67 32 2.34 32 2 32 C-0.38297872 10.46808511 -0.38297872 10.46808511 0 0 Z " fill="#F0C245" transform="translate(10,120)"/>
<path d="M0 0 C0.33 0 0.66 0 1 0 C1.6745587 26.54302007 -1.73085181 50.55667522 -20.67578125 70.62890625 C-21.44277344 71.41136719 -22.20976562 72.19382812 -23 73 C-23.65355469 73.68964844 -24.30710938 74.37929687 -24.98046875 75.08984375 C-43.75312391 93.42676997 -71.46277278 97.5608725 -96.5078125 97.27734375 C-115.94652139 96.71548288 -133.87368468 87.14127553 -147.21484375 73.14453125 C-153.15227758 66.01181533 -158.75672658 58.26374968 -163 50 C-162.67 49.34 -162.34 48.68 -162 48 C-161.55011719 48.71542969 -161.10023438 49.43085938 -160.63671875 50.16796875 C-147.31518117 70.80433859 -130.31922014 87.08932717 -105.625 92.5 C-80.90211267 97.29305977 -55.04471583 91.91274616 -33.9609375 78.1171875 C-16.02729124 65.29392065 -5.9123109 46.49122427 -2 25 C-0.95261778 16.70055324 -0.43329245 8.35128072 0 0 Z " fill="#FDF8EE" transform="translate(214,119)"/>
<path d="M0 0 C-0.99 2.64 -1.98 5.28 -3 8 C-7 7 -7 7 -10 5 C-13.97617113 5.31390825 -16.70155506 6.83245047 -20 9 C-18.84826645 11.46800047 -17.95216435 13.04783565 -16 15 C-15.3671875 17.3828125 -15.3671875 17.3828125 -14.875 20.125 C-14.62363281 21.49011719 -14.62363281 21.49011719 -14.3671875 22.8828125 C-14.24601562 23.58148438 -14.12484375 24.28015625 -14 25 C-17.29601625 26.09867208 -17.88707397 25.95020098 -21.02734375 24.890625 C-21.81455811 24.63168457 -22.60177246 24.37274414 -23.4128418 24.10595703 C-24.245979 23.82349121 -25.07911621 23.54102539 -25.9375 23.25 C-33.24157229 20.85023924 -40.49909202 18.70679343 -48 17 C-48 16.01 -48 15.02 -48 14 C-34.83779585 3.65651741 -16.37249756 -0.56027558 0 0 Z " fill="#EDD07C" transform="translate(128,41)"/>
<path d="M0 0 C1.66343802 3.32687604 -0.14817979 6.60725572 -1.1875 10 C-1.53107544 11.14553345 -1.53107544 11.14553345 -1.8815918 12.31420898 C-3.61912703 18.0050133 -5.60309607 23.55005644 -8 29 C-0.39182154 26.81386858 -0.39182154 26.81386858 7 24 C4.2203437 27.088507 2.02497664 28.87675071 -2 30 C-4.3320802 30.07646165 -6.66845878 30.09143299 -9 30 C-8.7525 30.680625 -8.505 31.36125 -8.25 32.0625 C-7.93295423 35.78778777 -9.06331641 37.28059971 -11.0078125 40.3515625 C-12.11396262 42.18933947 -12.66142555 43.88390969 -13 46 C-11.35 46 -9.7 46 -8 46 C-8.495 46.99 -8.495 46.99 -9 48 C-10.65 48 -12.3 48 -14 48 C-14 47.01 -14 46.02 -14 45 C-14.66 45 -15.32 45 -16 45 C-16.495 45.99 -16.495 45.99 -17 47 C-18.8125 49.125 -18.8125 49.125 -21 51 C-22.32 51 -23.64 51 -25 51 C-25.33 50.34 -25.66 49.68 -26 49 C-27.72224018 48.1789106 -27.72224018 48.1789106 -29.83984375 47.51953125 C-30.64776367 47.24568604 -31.45568359 46.97184082 -32.28808594 46.68969727 C-33.5995459 46.25548462 -33.5995459 46.25548462 -34.9375 45.8125 C-44.74048295 42.4835037 -54.3802088 38.82235665 -64 35 C-60.01995615 33.67331872 -57.30216351 34.85974127 -53.4453125 36.0546875 C-52.70675018 36.27569122 -51.96818787 36.49669495 -51.20724487 36.72439575 C-48.84395798 37.43313546 -46.48443953 38.15356616 -44.125 38.875 C-41.77209399 39.58708267 -39.41847323 40.29670368 -37.06417847 41.00418091 C-35.59961729 41.44508101 -34.13596534 41.88901596 -32.67337036 42.33639526 C-29.1373081 43.40863567 -25.64022634 44.35750314 -22 45 C-21.67 44.01 -21.34 43.02 -21 42 C-21.99 41.505 -21.99 41.505 -23 41 C-23.309375 39.88625 -23.61875 38.7725 -23.9375 37.625 C-24.91204934 34.30006694 -25.3498113 33.04787309 -28 31 C-26.63792042 26.91376127 -24.73386836 26.0105445 -21 24 C-16.86862054 24.10328449 -13.60034484 26.07423416 -10 28 C-9.85304687 27.3915625 -9.70609375 26.783125 -9.5546875 26.15625 C-8.00172828 20.08721396 -6.0731031 14.23485643 -3.875 8.375 C-3.60929199 7.66408203 -3.34358398 6.95316406 -3.06982422 6.22070312 C-1.13281863 1.13281863 -1.13281863 1.13281863 0 0 Z " fill="#FCF7DD" transform="translate(135,21)"/>
<path d="M0 0 C1.21086139 3.78394186 1.62185212 7.06160323 1 11 C-1.69711514 13.14668348 -3.95100583 14.46478212 -7 16 C-8.29217913 16.69193448 -9.5823952 17.38754201 -10.87109375 18.0859375 C-14.56711432 20.08379832 -18.2796752 22.04779832 -22 24 C-22.32871094 23.55269531 -22.65742188 23.10539062 -22.99609375 22.64453125 C-26.99424674 17.56286796 -31.22572044 14.80315026 -37 12 C-38.33333333 11.33333333 -39.66666667 10.66666667 -41 10 C-30.96603428 7.45957586 -20.91505451 5.00766877 -10.83325195 2.66333008 C-9.97304443 2.46118896 -9.11283691 2.25904785 -8.2265625 2.05078125 C-7.45908691 1.87200439 -6.69161133 1.69322754 -5.90087891 1.5090332 C-0.26570743 0 -0.26570743 0 0 0 Z " fill="#F0CF2C" transform="translate(180,109)"/>
<path d="M0 0 C1.29608947 0.93137592 2.58671632 1.8703566 3.875 2.8125 C4.59429687 3.33457031 5.31359375 3.85664062 6.0546875 4.39453125 C8 6 8 6 10 9 C1.81503465 16.75977234 -3.99152242 19.37562348 -15.40234375 19.10546875 C-16.25957031 19.07066406 -17.11679688 19.03585938 -18 19 C-18.33 18.34 -18.66 17.68 -19 17 C-18.00522247 14.66443537 -17.00484883 12.33124929 -16 10 C-16 8.68 -16 7.36 -16 6 C-15.02160156 5.85304688 -15.02160156 5.85304688 -14.0234375 5.703125 C-8.36568892 4.73513262 -4.51577961 3.56508917 0 0 Z " fill="#F6D482" transform="translate(142,45)"/>
<path d="M0 0 C1.32 0.66 2.64 1.32 4 2 C-6.15318151 12.73176355 -19.30761054 18.94876438 -34.07324219 19.41772461 C-47.88054805 19.52741388 -59.36045023 16.64388343 -71 9 C-71.66 8.01 -72.32 7.02 -73 6 C-70.40422869 6.96414363 -68.08872739 7.94331306 -65.75 9.4375 C-52.75341673 16.82192231 -36.01939274 16.70422153 -21.9609375 12.97265625 C-13.47717084 10.18577248 -6.80768359 5.70595702 0 0 Z " fill="#C25802" transform="translate(168,167)"/>
<path d="M0 0 C2.47113222 0.61449114 3.57083614 1.28232085 5.32421875 3.109375 C7.19921875 6.546875 7.19921875 6.546875 7.38671875 10.171875 C6.19921875 13.546875 6.19921875 13.546875 3.51171875 16.046875 C-0.36132464 17.80070597 -1.82380696 17.98535506 -5.80078125 16.546875 C-9.08933755 14.0447126 -10.59479528 12.64546685 -11.36328125 8.546875 C-10.07595019 1.68110934 -6.66113948 -0.39636532 0 0 Z " fill="#F2B741" transform="translate(130.80078125,222.453125)"/>
<path d="M0 0 C2.3125 0.875 2.3125 0.875 5.3125 2.875 C5.3125 3.535 5.3125 4.195 5.3125 4.875 C5.9725 4.875 6.6325 4.875 7.3125 4.875 C6.63834613 10.1334002 5.06984451 14.90138346 3.3125 19.875 C-2.58027523 18.42029817 -2.58027523 18.42029817 -4.6875 16.875 C-5.4041207 14.55652126 -6.06992027 12.22180297 -6.6875 9.875 C-8.16511659 7.97329946 -8.16511659 7.97329946 -9.6875 6.875 C-8.18320376 2.36211129 -4.86307066 -0.22618933 0 0 Z " fill="#FCED9D" transform="translate(116.6875,45.125)"/>
<path d="M0 0 C0.99 0 1.98 0 3 0 C2.33402293 3.96690688 0.37746017 6.90236577 -1.6875 10.3125 C-12.5446157 29.01127156 -17.57490912 50.39765419 -18 72 C-18.33 72 -18.66 72 -19 72 C-19.96910801 44.94573477 -13.83573233 23.12104603 0 0 Z " fill="#FDF7E9" transform="translate(30,57)"/>
<path d="M0 0 C0.42925781 0.5775 0.85851562 1.155 1.30078125 1.75 C8.07330109 10.97837475 8.07330109 10.97837475 18 16 C28.04533853 17.01404048 37.80218046 16.73884378 46.140625 10.36328125 C48 9 48 9 50 9 C50.495 10.485 50.495 10.485 51 12 C40.38621406 19.3168606 30.76678212 21.14488348 18 20 C10.83133756 18.33802262 6.27265569 12.69687426 2 7 C0.40563977 4.27841693 0 3.22376477 0 0 Z " fill="#FCE7AD" transform="translate(101,139)"/>
<path d="M0 0 C-4.75 4 -4.75 4 -7 4 C-7.26554687 4.53109375 -7.53109375 5.0621875 -7.8046875 5.609375 C-10.203125 10.40625 -12.6015625 15.203125 -15 20 C-15.33 20 -15.66 20 -16 20 C-17.95021536 13.53991163 -18.22262303 7.7281627 -18 1 C-15.75152519 0.63627613 -13.50113812 0.28435904 -11.25 -0.0625 C-9.99703125 -0.25972656 -8.7440625 -0.45695312 -7.453125 -0.66015625 C-4.49983411 -0.95080818 -2.7397586 -0.98935727 0 0 Z " fill="#EDCC2B" transform="translate(119,123)"/>
<path d="M0 0 C1 3 1 3 0.328125 4.8671875 C-0.20554687 5.86105469 -0.20554687 5.86105469 -0.75 6.875 C-1.12382813 7.58398438 -1.49765625 8.29296875 -1.8828125 9.0234375 C-2.74386121 10.54683138 -3.67132741 12.0328114 -4.625 13.5 C-6.49703223 16.90369496 -7.1648688 20.20978917 -8 24 C-11.63 24.33 -15.26 24.66 -19 25 C-19 24.67 -19 24.34 -19 24 C-17.35 23.67 -15.7 23.34 -14 23 C-13.79375 21.700625 -13.5875 20.40125 -13.375 19.0625 C-11.53551446 10.83663158 -6.66773776 4.92142549 0 0 Z " fill="#FECA33" transform="translate(107,100)"/>
<path d="M0 0 C2.28795897 1.4544882 3.91109328 2.5214053 5.140625 4.98046875 C4.480625 4.71234375 3.820625 4.44421875 3.140625 4.16796875 C2.150625 3.77609375 1.160625 3.38421875 0.140625 2.98046875 C-0.44074219 2.71621094 -1.02210938 2.45195313 -1.62109375 2.1796875 C-9.31996375 -1.1153664 -16.85806856 -0.98943258 -24.6875 1.92578125 C-29.75006968 4.38422336 -33.96149517 7.96302206 -37.859375 11.98046875 C-36.72030121 7.30427108 -35.85188573 3.85757126 -32.171875 0.60546875 C-31.07875 0.06921875 -29.985625 -0.46703125 -28.859375 -1.01953125 C-28.25996094 -1.31601563 -27.66054687 -1.6125 -27.04296875 -1.91796875 C-18.01524837 -5.89381328 -8.527491 -4.67578813 0 0 Z " fill="#D58A51" transform="translate(143.859375,101.01953125)"/>
<path d="M0 0 C0.99 0.33 1.98 0.66 3 1 C2.34644531 1.69222656 2.34644531 1.69222656 1.6796875 2.3984375 C-8.68179617 13.74672914 -12.58478728 25.05409539 -15 40 C-12.03 40 -9.06 40 -6 40 C-6 40.33 -6 40.66 -6 41 C-8.64 41 -11.28 41 -14 41 C-14.33 41.99 -14.66 42.98 -15 44 C-15 43.01 -15 42.02 -15 41 C-16.485 41.495 -16.485 41.495 -18 42 C-18.51859392 26.4421824 -11.99309953 12.76041167 -1.5390625 1.58203125 C-1.03117187 1.05996094 -0.52328125 0.53789063 0 0 Z " fill="#FED13D" transform="translate(90,85)"/>
<path d="M0 0 C0.33 0.99 0.66 1.98 1 3 C1.66 2.34 2.32 1.68 3 1 C3.33 1.99 3.66 2.98 4 4 C3.56042969 4.34417969 3.12085937 4.68835938 2.66796875 5.04296875 C0.31767836 7.80056941 -0.5746182 10.92348204 -1.6875 14.3125 C-2.2030913 15.82857993 -2.72009557 17.34417985 -3.23828125 18.859375 C-3.51623535 19.67728516 -3.79418945 20.49519531 -4.08056641 21.33789062 C-5.78343993 26.26835609 -7.58434903 31.16338401 -9.375 36.0625 C-10.07031901 37.97004971 -10.76563205 39.8776016 -11.4609375 41.78515625 C-11.97384181 43.19014671 -12.48681503 44.59511203 -13 46 C-14.29657218 42.11028347 -13.43693591 40.39481329 -12.234375 36.49609375 C-12.04031067 35.85817398 -11.84624634 35.22025421 -11.64630127 34.56300354 C-11.02234443 32.51856812 -10.38643231 30.47808218 -9.75 28.4375 C-9.33643491 27.09074163 -8.92366603 25.74373848 -8.51171875 24.39648438 C-7.71448238 21.79279266 -6.91294372 19.19049536 -6.10742188 16.58935547 C-4.71219256 12.06716381 -3.35222239 7.53521339 -2 3 C-4.97 3.66 -7.94 4.32 -11 5 C-8.17986144 -0.64027712 -5.86288574 -0.13028635 0 0 Z " fill="#FFF8CF" transform="translate(117,73)"/>
<path d="M0 0 C5.29921569 -0.44434417 9.11514721 1.01486374 13.75 3.375 C14.45157227 3.73005615 15.15314453 4.0851123 15.87597656 4.45092773 C24.56198339 9.07647597 32.06275528 15.81309565 36 25 C35.505 26.485 35.505 26.485 35 28 C34.443125 27.29875 33.88625 26.5975 33.3125 25.875 C32.549375 24.92625 31.78625 23.9775 31 23 C30.60296875 22.47277344 30.2059375 21.94554688 29.796875 21.40234375 C27.17499683 18.02543104 25.13284397 16.18081256 21 15 C21 14.01 21 13.02 21 12 C15.68241784 7.75724828 9.29396273 5.12172153 2.93359375 2.859375 C1 2 1 2 0 0 Z " fill="#FEFBEA" transform="translate(141,71)"/>
<path d="M0 0 C1.98 0 3.96 0 6 0 C6.9765625 1.72526042 7.953125 3.45052083 8.9296875 5.17578125 C9.89428581 6.81982289 10.94267059 8.41400588 12 10 C12 14 12 14 10.49609375 15.5625 C8.34469633 17.06480408 6.18812562 18.55157702 4 20 C3.42636719 20.42023437 2.85273438 20.84046875 2.26171875 21.2734375 C-2.70132258 24.6137183 -7.27340201 24.41480388 -13 24 C-10.46993991 21.46993991 -8.19062193 20.9162101 -4.8125 19.75 C0.94082373 17.61323343 4.6814522 15.3185478 9 11 C8.2575 10.2575 7.515 9.515 6.75 8.75 C5.8425 7.8425 4.935 6.935 4 6 C3.236875 5.278125 2.47375 4.55625 1.6875 3.8125 C0 2 0 2 0 0 Z " fill="#E7C055" transform="translate(142,43)"/>
<path d="M0 0 C0.66 0.66 1.32 1.32 2 2 C-2.96463313 6.12585949 -8.48881159 7.12403655 -14.875 6.8984375 C-17.26432737 6.66086234 -19.62841561 6.37339839 -22 6 C-16.63350379 -0.00576536 -7.68035513 -1.11793449 0 0 Z " fill="#F5DB65" transform="translate(136,100)"/>
<path d="M0 0 C0 0.99 0 1.98 0 3 C-3.45434314 5.00695291 -6.9141063 7.00436779 -10.375 9 C-11.35984375 9.57234375 -12.3446875 10.1446875 -13.359375 10.734375 C-14.77089844 11.54648438 -14.77089844 11.54648438 -16.2109375 12.375 C-17.08024902 12.87773438 -17.94956055 13.38046875 -18.84521484 13.8984375 C-21 15 -21 15 -23 15 C-23.66 13.68 -24.32 12.36 -25 11 C-22.25040459 9.54090289 -19.50025279 8.08285758 -16.75 6.625 C-15.97269531 6.2125 -15.19539062 5.8 -14.39453125 5.375 C-13.26337891 4.77558594 -13.26337891 4.77558594 -12.109375 4.1640625 C-11.07248535 3.61419678 -11.07248535 3.61419678 -10.01464844 3.05322266 C-9.34981445 2.70565918 -8.68498047 2.3580957 -8 2 C-7.33774414 1.62536621 -6.67548828 1.25073242 -5.99316406 0.86474609 C-4 0 -4 0 0 0 Z " fill="#D17D33" transform="translate(178,99)"/>
<path d="M0 0 C5.28 0.33 10.56 0.66 16 1 C15.01 1.33 14.02 1.66 13 2 C13 2.66 13 3.32 13 4 C11.44424022 4.84584998 9.8800388 5.67618399 8.3125 6.5 C7.00732422 7.19609375 7.00732422 7.19609375 5.67578125 7.90625 C2.88211171 9.04818792 0.98370887 9.21504208 -2 9 C-1.34 6.03 -0.68 3.06 0 0 Z " fill="#EBCA73" transform="translate(129,41)"/>
<path d="M0 0 C0.66 0 1.32 0 2 0 C2 13.53 2 27.06 2 41 C-1 38 -1 38 -1.2487793 34.17114258 C-1.20637908 32.57844022 -1.14710941 30.98612967 -1.07421875 29.39453125 C-1.04777786 28.55532639 -1.02133698 27.71612152 -0.99409485 26.85148621 C-0.90632303 24.17110104 -0.79717875 21.4920695 -0.6875 18.8125 C-0.62424201 16.99549122 -0.56237593 15.1784334 -0.50195312 13.36132812 C-0.350781 8.90682233 -0.18043699 4.45341251 0 0 Z " fill="#C55B01" transform="translate(179,138)"/>
<path d="M0 0 C8.46272046 -0.59972035 15.12649912 0.92205201 23 4 C23.33 5.65 23.66 7.3 24 9 C16 6.33333333 8 3.66666667 0 1 C0 0.67 0 0.34 0 0 Z " fill="#FFD964" transform="translate(129,72)"/>
<path d="M0 0 C9.57 0 19.14 0 29 0 C29.33 0.66 29.66 1.32 30 2 C22.94571796 2.66617166 15.89699043 3.13274423 8.8125 3.25 C6.93498047 3.28867188 6.93498047 3.28867188 5.01953125 3.328125 C3.52486328 3.16570312 3.52486328 3.16570312 2 3 C1.34 2.01 0.68 1.02 0 0 Z " fill="#FEF4C3" transform="translate(139,136)"/>
<path d="M0 0 C1.55275546 3.10551092 0.11513003 5.20163732 -0.9375 8.4375 C-3.44329437 16.8621535 -3.86225286 24.38708053 -2 33 C-6.91448793 26.80347174 -6.50584462 20.65866498 -6 13 C-4.9764039 8.093798 -3.42834119 3.75484987 0 0 Z " fill="#CB6E20" transform="translate(105,108)"/>
<path d="M0 0 C0.66 0.66 1.32 1.32 2 2 C1.71875 5.12109375 1.71875 5.12109375 1 9 C0.7628125 10.29035156 0.525625 11.58070312 0.28125 12.91015625 C0.15403564 13.58377197 0.02682129 14.2573877 -0.10424805 14.95141602 C-1.67085163 23.30824584 -2.60915996 31.49585975 -3 40 C-3.33 40 -3.66 40 -4 40 C-4.49992357 26.04380047 -3.46582684 13.53838609 0 0 Z " fill="#FBF0D6" transform="translate(15,89)"/>
<path d="M0 0 C0.33 0 0.66 0 1 0 C1.67325194 26.49160058 1.67325194 26.49160058 -2 38 C-2.66 38.66 -3.32 39.32 -4 40 C-5.1947482 36.41575541 -4.67682173 35.21303522 -3.63671875 31.640625 C-1.88377627 25.0199498 -1.25121544 18.56820149 -0.8125 11.75 C-0.73064453 10.61175781 -0.64878906 9.47351563 -0.56445312 8.30078125 C-0.36685223 5.53436869 -0.17883949 2.76767762 0 0 Z " fill="#F9ECC5" transform="translate(214,119)"/>
<path d="M0 0 C0.33 0 0.66 0 1 0 C0.85833643 1.91697937 0.71150416 3.83357723 0.5625 5.75 C0.48128906 6.81734375 0.40007812 7.8846875 0.31640625 8.984375 C0 12 0 12 -1 16 C1.97 16 4.94 16 8 16 C8 16.33 8 16.66 8 17 C5.36 17 2.72 17 0 17 C-0.33 17.99 -0.66 18.98 -1 20 C-1 19.01 -1 18.02 -1 17 C-1.99 17.33 -2.98 17.66 -4 18 C-4.39873011 11.88613837 -3.12115707 6.73701549 -1 1 C-0.67 0.67 -0.34 0.34 0 0 Z " fill="#FECC2C" transform="translate(76,109)"/>
<path d="M0 0 C0.99 0.33 1.98 0.66 3 1 C2.56429687 1.42667969 2.12859375 1.85335937 1.6796875 2.29296875 C-5.40467276 9.73001361 -9.68139909 19.0300161 -12 29 C-12.33 29 -12.66 29 -13 29 C-12.80750857 17.83549701 -7.24814684 8.23539443 0 0 Z " fill="#FDF8C9" transform="translate(86,86)"/>
<path d="M0 0 C0.66 0.33 1.32 0.66 2 1 C-0.33239189 3.62868923 -2.632045 4.91912352 -5.8125 6.375 C-9.06910454 7.93209372 -11.75961711 9.45279437 -14.4375 11.875 C-15.283125 12.57625 -16.12875 13.2775 -17 14 C-17.99 13.67 -18.98 13.34 -20 13 C-14.1536849 7.18807499 -7.73433649 2.95094685 0 0 Z " fill="#FEFBE2" transform="translate(107,72)"/>
<path d="M0 0 C2.58565573 0.96038641 4.8764867 1.91883412 7.1875 3.4375 C10.59490872 5.33050485 14.05792295 6.26412555 17.8125 7.1875 C18.50537109 7.36474609 19.19824219 7.54199219 19.91210938 7.72460938 C21.60625944 8.15690974 23.30289268 8.57945894 25 9 C24.01 10.485 24.01 10.485 23 12 C14.88975813 9.99443043 4.8193976 7.2290964 0 0 Z " fill="#C86405" transform="translate(95,173)"/>
<path d="M0 0 C7.78593716 1.61088355 15.37428218 3.76543688 23 6 C23 6.99 23 7.98 23 9 C17.94514073 8.26905294 13.40096821 6.31619096 8.6875 4.4375 C7.85154297 4.10814453 7.01558594 3.77878906 6.15429688 3.43945312 C4.10136454 2.63001123 2.05002714 1.81676543 0 1 C0 0.67 0 0.34 0 0 Z " fill="#F9EFC6" transform="translate(71,55)"/>
<path d="M0 0 C1.9375 1.5625 1.9375 1.5625 3 3 C2.67 3.66 2.34 4.32 2 5 C1.34 4.34 0.68 3.68 0 3 C-3.07366225 2.38289407 -5.9322037 2.34495453 -9 3 C-11.56680314 5.84730711 -11.56680314 5.84730711 -13 9 C-13.33 9 -13.66 9 -14 9 C-14.25 6.75 -14.25 6.75 -14 4 C-9.82213774 -1.18631178 -6.32503701 -1.35536507 0 0 Z " fill="#CB670B" transform="translate(133,221)"/>
<path d="M0 0 C3.96 0.33 7.92 0.66 12 1 C11.01 1.66 10.02 2.32 9 3 C10.32 3.66 11.64 4.32 13 5 C12 6 12 6 8.1875 6.1875 C4.96459799 6.1585691 2.74455277 5.82970185 0 4 C0 2.68 0 1.36 0 0 Z " fill="#F2DCB7" transform="translate(122,63)"/>
<path d="M0 0 C1.06541016 0.39832031 1.06541016 0.39832031 2.15234375 0.8046875 C2.93609375 1.09214844 3.71984375 1.37960938 4.52734375 1.67578125 C5.37296875 2.00707031 6.21859375 2.33835937 7.08984375 2.6796875 C8.48203125 3.22302734 8.48203125 3.22302734 9.90234375 3.77734375 C12.30479468 4.72945143 14.69986922 5.69675434 17.08984375 6.6796875 C13.09214997 8.24878231 10.08680773 7.06542988 6.08984375 5.8671875 C4.26453125 5.33158203 4.26453125 5.33158203 2.40234375 4.78515625 C-0.2082457 3.91393359 -2.51125656 3.00507958 -4.91015625 1.6796875 C-1.91015625 -0.3203125 -1.91015625 -0.3203125 0 0 Z " fill="#FFEFBC" transform="translate(143.91015625,77.3203125)"/>
<path d="M0 0 C2 3 2 3 1.71484375 4.98828125 C1.45832031 5.75527344 1.20179687 6.52226563 0.9375 7.3125 C0.65132813 8.18261719 0.36515625 9.05273438 0.0703125 9.94921875 C-0.28289062 10.95597656 -0.63609375 11.96273437 -1 13 C-1.43570313 14.24394531 -1.87140625 15.48789063 -2.3203125 16.76953125 C-3.52753535 20.1867612 -4.75869291 23.59499161 -6 27 C-7.21151564 23.36545309 -6.65868046 22.07878256 -5.56640625 18.45703125 C-5.24736328 17.38388672 -4.92832031 16.31074219 -4.59960938 15.20507812 C-4.25736328 14.08552734 -3.91511719 12.96597656 -3.5625 11.8125 C-3.22412109 10.68134766 -2.88574219 9.55019531 -2.53710938 8.38476562 C-1.69908969 5.58743231 -0.85310671 2.792762 0 0 Z " fill="#F7E0B2" transform="translate(110,92)"/>
<path d="M0 0 C-1 3 -1 3 -2.734375 4.1796875 C-5.38319681 5.13874367 -7.44065467 5.19893014 -10.25 5.125 C-11.14203125 5.10695313 -12.0340625 5.08890625 -12.953125 5.0703125 C-13.96632812 5.03550781 -13.96632812 5.03550781 -15 5 C-12.62383533 2.62383533 -10.64650479 1.95931819 -7.5 0.8125 C-6.5203125 0.44769531 -5.540625 0.08289062 -4.53125 -0.29296875 C-2 -1 -2 -1 0 0 Z " fill="#E2B187" transform="translate(144,62)"/>
<path d="M0 0 C1.72193894 3.44387787 -0.20748274 7.03464464 -1.25 10.5625 C-1.46785156 11.35591797 -1.68570313 12.14933594 -1.91015625 12.96679688 C-2.13058594 13.72154297 -2.35101563 14.47628906 -2.578125 15.25390625 C-2.77825195 15.94814697 -2.97837891 16.6423877 -3.18457031 17.35766602 C-3.45366211 17.89963623 -3.72275391 18.44160645 -4 19 C-4.99 19.33 -5.98 19.66 -7 20 C-6.3899268 15.43138367 -5.18479121 11.47294276 -3.5 7.1875 C-3.0565625 6.04667969 -2.613125 4.90585937 -2.15625 3.73046875 C-1 1 -1 1 0 0 Z " fill="#FDF9B8" transform="translate(135,21)"/>
<path d="M0 0 C3.0659781 2.76036613 5.25922486 6.11084148 7.5625 9.5 C7.96146484 10.08136719 8.36042969 10.66273438 8.77148438 11.26171875 C10.53160097 13.82990223 12.27296172 16.40944258 14 19 C13.01 19 12.02 19 11 19 C9.31640625 17.05859375 9.31640625 17.05859375 7.5625 14.4375 C6.64984375 13.07431641 6.64984375 13.07431641 5.71875 11.68359375 C0 2.75454545 0 2.75454545 0 0 Z " fill="#FAF0D6" transform="translate(51,167)"/>
<path d="M0 0 C-0.25566879 3.45152861 -1.26197074 4.24488569 -3.875 6.6875 C-7 9 -7 9 -10 10 C-8.71596412 5.50587442 -5.23012555 0 0 0 Z " fill="#DB9A63" transform="translate(153,54)"/>
<path d="M0 0 C0.66 0.33 1.32 0.66 2 1 C0.02 3.31 -1.96 5.62 -4 8 C-5.65 7.67 -7.3 7.34 -9 7 C-6.25604436 4.05278838 -3.61662784 1.80831392 0 0 Z " fill="#E2B34E" transform="translate(88,50)"/>
<path d="M0 0 C6.02035272 0.24572868 10.26316913 2.29140803 15 6 C15.33 6.66 15.66 7.32 16 8 C15.34 7.731875 14.68 7.46375 14 7.1875 C11.65462647 6.25912298 9.30404091 5.37141787 6.9375 4.5 C4.19880793 3.480109 1.57468303 2.39461998 -1 1 C-0.67 0.67 -0.34 0.34 0 0 Z " fill="#D58840" transform="translate(133,98)"/>
<path d="M0 0 C4.99275057 1.27721526 7.57611908 3.17330957 11 7 C9.53984709 6.71758359 8.08190207 6.42373386 6.625 6.125 C5.81289062 5.96257812 5.00078125 5.80015625 4.1640625 5.6328125 C2 5 2 5 0 3 C0 2.01 0 1.02 0 0 Z " fill="#FFD047" transform="translate(152,77)"/>
<path d="M0 0 C0.99 0.33 1.98 0.66 3 1 C-0.63 3.31 -4.26 5.62 -8 8 C-8.99 7.34 -9.98 6.68 -11 6 C-9.54195831 5.18697675 -8.08355685 4.37459869 -6.625 3.5625 C-5.40683594 2.88380859 -5.40683594 2.88380859 -4.1640625 2.19140625 C-2.79003378 1.4349464 -1.40290739 0.70145369 0 0 Z " fill="#FEE184" transform="translate(106,75)"/>
<path d="M0 0 C1.98 0.66 3.96 1.32 6 2 C5.34 3.32 4.68 4.64 4 6 C2.02 5.34 0.04 4.68 -2 4 C-1.34 2.68 -0.68 1.36 0 0 Z " fill="#FECC40" transform="translate(140,95)"/>
<path d="M0 0 C2.97 0.495 2.97 0.495 6 1 C5.484375 1.37125 4.96875 1.7425 4.4375 2.125 C2.63680017 4.03173152 2.63680017 4.03173152 3.3125 7.1875 C3.539375 8.115625 3.76625 9.04375 4 10 C1.47411298 7.63707344 0.11179163 6.33537489 -1 3 C-0.67 2.01 -0.34 1.02 0 0 Z " fill="#FFF4C4" transform="translate(122,74)"/>
<path d="M0 0 C3.3 0 6.6 0 10 0 C9.67 0.99 9.34 1.98 9 3 C6.36 3.33 3.72 3.66 1 4 C1.33 3.01 1.66 2.02 2 1 C1.34 0.67 0.68 0.34 0 0 Z " fill="#DC9859" transform="translate(123,97)"/>
<path d="M0 0 C3.63 0 7.26 0 11 0 C10.67 1.32 10.34 2.64 10 4 C6.7 3.01 3.4 2.02 0 1 C0 0.67 0 0.34 0 0 Z " fill="#FFE697" transform="translate(129,72)"/>
<path d="M0 0 C2.66666667 1.33333333 5.33333333 2.66666667 8 4 C8 4.99 8 5.98 8 7 C5.07120629 6.37240135 2.63904371 5.41377341 0 4 C0 2.68 0 1.36 0 0 Z " fill="#F2D7B9" transform="translate(112,58)"/>
<path d="M0 0 C-0.33 0.99 -0.66 1.98 -1 3 C-1.9075 3.144375 -2.815 3.28875 -3.75 3.4375 C-6.21476956 3.86409473 -8.58847107 4.35074221 -11 5 C-10.1875 3.0625 -10.1875 3.0625 -9 1 C-5.8035914 -0.06546953 -3.34252724 -0.07427838 0 0 Z " fill="#FFF1C5" transform="translate(117,73)"/>
<path d="M0 0 C2.97 0.495 2.97 0.495 6 1 C5.67 2.32 5.34 3.64 5 5 C2.525 4.01 2.525 4.01 0 3 C0 2.01 0 1.02 0 0 Z " fill="#FFDF78" transform="translate(139,73)"/>
<path d="M0 0 C1.65 0 3.3 0 5 0 C2.03 3.96 2.03 3.96 -1 8 C-2 6 -2 6 -1.0625 2.875 C-0.5365625 1.451875 -0.5365625 1.451875 0 0 Z " fill="#D07F3D" transform="translate(108,105)"/>
<path d="M0 0 C0.33 0.99 0.66 1.98 1 3 C-3.5 6 -3.5 6 -8 9 C-6.4169423 4.7257442 -3.49431596 2.73468206 0 0 Z " fill="#FFD140" transform="translate(107,100)"/>
<path d="M0 0 C0 3 0 3 -1.3125 4.60546875 C-1.869375 5.12753906 -2.42625 5.64960938 -3 6.1875 C-3.556875 6.71730469 -4.11375 7.24710938 -4.6875 7.79296875 C-5.120625 8.19128906 -5.55375 8.58960938 -6 9 C-6.66 8.67 -7.32 8.34 -8 8 C-5.58443874 4.80800833 -3.31996462 2.25283313 0 0 Z " fill="#FEFDFC" transform="translate(195,185)"/>
<path d="M0 0 C0.33 0 0.66 0 1 0 C0.125 6.75 0.125 6.75 -1 9 C-1.66 9 -2.32 9 -3 9 C-2.44271087 5.65626525 -1.64826111 2.96687001 0 0 Z " fill="#F7EBCA" transform="translate(128,41)"/>
<path d="M0 0 C2.48862878 3.23521742 4.75421558 6.59260295 7 10 C6.01 10 5.02 10 4 10 C0 3.375 0 3.375 0 0 Z " fill="#FBDF99" transform="translate(101,139)"/>
<path d="M0 0 C3 2 3 2 3.6875 5.125 C3.790625 6.07375 3.89375 7.0225 4 8 C1 7 1 7 -0.25 4.5625 C-1 2 -1 2 0 0 Z " fill="#F1CD9A" transform="translate(109,54)"/>
<path d="M0 0 C0.66 0 1.32 0 2 0 C1.75 1.875 1.75 1.875 1 4 C-1.0625 5.25 -1.0625 5.25 -3 6 C-2.42655063 3.13275314 -2.1385485 2.1385485 0 0 Z " fill="#D58A4C" transform="translate(151,54)"/>
<path d="M0 0 C0.66 0.66 1.32 1.32 2 2 C1.01 3.98 0.02 5.96 -1 8 C-3 5 -3 5 -3 2 C-2.34 2 -1.68 2 -1 2 C-0.67 1.34 -0.34 0.68 0 0 Z " fill="#FDF3C4" transform="translate(125,54)"/>
</svg>
