<?xml version="1.0" standalone="no"?>
<!DOCTYPE svg PUBLIC "-//W3C//DTD SVG 20010904//EN"
 "http://www.w3.org/TR/2001/REC-SVG-20010904/DTD/svg10.dtd">
<svg version="1.0" xmlns="http://www.w3.org/2000/svg"
 width="260.000000pt" height="260.000000pt" viewBox="0 0 260.000000 260.000000"
 preserveAspectRatio="xMidYMid meet">
<metadata>
Created by potrace 1.14, written by Peter Selinger 2001-2017
</metadata>
<g transform="translate(0.000000,260.000000) scale(0.100000,-0.100000)" fill="currentColor" stroke="none">
<path d="M1012 2357 c-44 -14 -118 -81 -143 -129 -11 -22 -23 -67 -25 -101 -7
-80 -7 -1142 0 -1226 9 -110 90 -207 191 -229 58 -12 479 -14 511 -2 38 15 48
78 17 112 -12 14 -39 16 -176 18 -326 2 -340 4 -382 50 -19 21 -20 39 -23 657
-3 702 -7 662 61 704 31 19 52 19 648 18 686 -1 664 2 700 -68 17 -31 18 -76
16 -655 -3 -668 0 -639 -55 -681 -29 -21 -29 -21 -351 -25 -127 -2 -135 -3
-158 -26 -28 -28 -25 -70 8 -97 21 -16 44 -18 250 -16 195 2 235 5 279 22 61
23 114 74 146 142 l24 50 0 643 c0 622 -1 644 -20 685 -31 66 -76 113 -133
142 l-53 26 -650 -2 c-411 -1 -661 -5 -682 -12z"/>
<path d="M222 1918 c-63 -24 -117 -75 -148 -143 l-23 -50 2 -650 2 -650 29
-53 c17 -30 47 -67 67 -83 76 -60 61 -59 766 -59 l644 0 47 24 c93 47 139 116
150 225 4 36 7 333 6 659 l-2 593 -27 54 c-14 30 -44 70 -66 88 -68 59 -113
67 -364 67 -123 0 -235 -4 -248 -9 -29 -11 -48 -57 -36 -89 15 -40 9 -39 444
-44 52 -1 77 -6 98 -20 59 -42 57 -23 57 -672 1 -326 -2 -612 -6 -635 -5 -29
-16 -50 -40 -71 l-34 -29 -625 -1 c-686 0 -654 -3 -700 58 -19 26 -20 43 -20
657 0 614 1 631 20 657 39 51 45 52 290 56 l230 3 23 26 c27 30 23 68 -10 96
-19 16 -43 18 -247 16 -198 -1 -233 -4 -279 -21z"/>
</g>
</svg>
